<?xml version="1.0" standalone="no"?><!DOCTYPE svg PUBLIC "-//W3C//DTD SVG 1.1//EN" "http://www.w3.org/Graphics/SVG/1.1/DTD/svg11.dtd"><svg t="1777430567359" class="icon" viewBox="0 0 1024 1024" version="1.1" xmlns="http://www.w3.org/2000/svg" p-id="5367" xmlns:xlink="http://www.w3.org/1999/xlink" width="200" height="200" role="img" aria-label="无人机"><title>无人机</title><path d="M197.792134 298.00681a103.228655 103.228655 0 1 1 102.851908-102.851908A102.851908 102.851908 0 0 1 197.792134 298.00681zM298.006814 828.843214a103.228655 103.228655 0 1 0-102.851908 103.228655A103.228655 103.228655 0 0 0 298.006814 828.843214z m631.804577 0a103.228655 103.228655 0 1 0-102.851908 102.851908A102.851908 102.851908 0 0 0 929.811391 828.843214z m0-634.818553a103.228655 103.228655 0 1 0-102.851908 103.982149 102.851908 102.851908 0 0 0 102.851908-102.851908z" fill="#A5F0FF" p-id="5368"></path><path d="M380.514388 766.679973a197.038637 197.038637 0 0 1-46.716617 200.429359 194.401408 194.401408 0 1 1-75.349384-321.741866h3.76747l-2.637229 2.637229c-12.809395 15.82337-27.502525 32.400235-40.31192 45.963123a137.889371 137.889371 0 0 0-21.474574 0 134.875396 134.875396 0 1 0 132.991661 113.024075c13.562889-12.809395 28.256019-25.61879 45.963124-40.31192l3.013975-2.637228z m444.56136-131.86142a193.647915 193.647915 0 0 0-62.163241 10.172166h-3.390722l2.260482 3.013976c10.925661 13.939636 24.111803 29.009512 37.674691 46.33987a137.135877 137.135877 0 0 1 21.474574 0 132.238167 132.238167 0 0 1 94.940223 37.674692 134.875396 134.875396 0 1 1-228.308631 75.349383c-15.069877-13.562889-30.139753-26.749031-46.33987-39.558426l1.13024-3.767469v3.390722a194.401408 194.401408 0 1 0 321.741866-75.349383 191.387433 191.387433 0 0 0-137.135877-57.265531zM512.752555 452.096299a57.642278 57.642278 0 0 0-41.818907 17.330358 59.149266 59.149266 0 0 0-17.330358 41.44216 59.90276 59.90276 0 0 0 17.330358 41.818908 58.772519 58.772519 0 0 0 100.591426-41.442161 58.395772 58.395772 0 0 0-17.330358-41.818907 59.149266 59.149266 0 0 0-41.442161-17.330358zM642.353494 260.332119l2.637229-2.260482c14.316383-10.925661 29.386259-24.111803 46.33987-37.674691a134.498649 134.498649 0 1 1 132.991662 113.024074 137.889371 137.889371 0 0 1-21.474575-1.883734c-14.69313 15.82337-27.502525 30.893247-39.935173 46.33987l-2.260481 2.637229h3.390722a197.792131 197.792131 0 0 0 62.539988 10.172166A194.778155 194.778155 0 1 0 642.353494 256.941396zM195.9084 389.179564a195.531649 195.531649 0 0 0 64.046975-12.432649H265.606579l-2.637229-3.013975c-13.186142-15.82337-27.879272-32.023488-40.688666-45.586377a142.033587 142.033587 0 0 1-21.851322 0 134.875396 134.875396 0 1 1 132.991662-113.024074c13.939636 13.562889 29.009512 27.125778 45.963123 41.065414L378.630654 263.722841v-3.767469a195.908396 195.908396 0 0 0-44.832883-203.066588 194.401408 194.401408 0 0 0-275.025249 275.025249 191.387433 191.387433 0 0 0 137.135878 57.265531z" fill="#38B8E0" p-id="5369"></path><path d="M780.996359 838.638634l12.432648 13.939636v1.883734a46.339871 46.339871 0 0 0 62.916735 2.637229 44.832883 44.832883 0 0 0 0-59.149266c-3.767469-4.144216-7.911685-8.288432-12.055901-12.055901l-3.390722-2.637229c-44.079389-40.688667-188.373458-180.085026-184.605989-261.462359v-21.851321c0-81.754081 140.903346-218.889958 184.605989-259.201878a14.316383 14.316383 0 0 1 3.390722-3.013975c2.637228-2.260481 10.548914-10.172167 12.055901-12.055902a44.456136 44.456136 0 0 0 0-58.772518 45.963124 45.963124 0 0 0-62.916735 2.260481s-9.418673 10.172167-12.432648 13.939636C738.047211 230.945859 611.0835 359.793304 529.32942 365.821255h-33.153729C416.305345 362.80728 281.429949 226.048149 241.494776 181.592013l-3.013975-3.390722A119.428772 119.428772 0 0 0 227.931887 166.14539a45.20963 45.20963 0 0 0-59.149265 0 46.339871 46.339871 0 0 0 2.637228 62.916735l13.939636 12.432648c44.832883 41.818908 168.029124 163.508161 180.085025 243.755254a246.76923 246.76923 0 0 1 0 55.00505c-16.953611 80.247093-135.252143 196.66189-178.578037 237.350557l-14.316383 13.562889-2.260482 2.260481a45.963124 45.963124 0 0 0-2.260481 62.916735 45.20963 45.20963 0 0 0 58.772519 0 125.83347 125.83347 0 0 0 12.055901-12.432648l3.013975-3.390723c37.674692-41.818908 167.652377-174.433822 249.783205-183.852494h40.688667c80.247093 7.911685 206.080563 135.252143 248.276217 180.838519z m-206.834056-263.722841a87.028537 87.028537 0 1 1 0-123.196241 87.405284 87.405284 0 0 1 0 121.312506z" fill="#38B8E0" p-id="5370"></path></svg>
