<?xml version="1.0" standalone="no"?><!DOCTYPE svg PUBLIC "-//W3C//DTD SVG 1.1//EN" "http://www.w3.org/Graphics/SVG/1.1/DTD/svg11.dtd"><svg t="1777430635381" class="icon" viewBox="0 0 1024 1024" version="1.1" xmlns="http://www.w3.org/2000/svg" p-id="6416" xmlns:xlink="http://www.w3.org/1999/xlink" width="200" height="200"><path d="M56.32 651.776c8.704 6.144 17.408 11.776 28.16 18.944 2.56-8.192 4.608-13.824 6.656-19.968 15.36-47.104 56.832-77.312 105.984-76.288 49.152 1.024 90.624 32.256 102.4 80.384 3.584 14.336 9.216 19.456 24.064 18.944 93.696-0.512 186.88-0.512 280.576 0 14.848 0 21.504-4.096 25.6-19.456 12.8-48.64 55.296-79.872 104.96-79.872 50.176 0 92.16 31.744 104.448 81.92 4.096 17.408 11.776 18.944 24.576 10.752 32.256-19.968 64.512-40.96 96.768-61.44 6.144-3.584 11.776-8.192 17.408-12.288v-14.336c-4.096-18.944-6.656-38.4-26.624-49.664-3.584-2.048-3.072-13.312-3.072-19.968-0.512-11.776 0.512-24.064-1.024-35.84-1.024-10.24-6.656-20.48-17.92-17.408-6.144 1.536-11.776 11.264-14.848 18.432-2.56 6.144-0.512 13.824-0.512 26.624-28.16-27.136-58.368-15.36-86.528-18.944-11.776-1.536-24.576-4.608-34.304-11.264-40.96-28.16-81.408-57.344-120.832-87.04-12.8-9.728-25.6-14.336-41.472-13.312-16.896 1.024-33.792 0-50.688 0l-1.536-6.144c15.872-9.728 32.256-18.944 48.128-28.672 6.144-3.584 15.36-5.12 11.264-16.896-0.512-2.048 6.656-7.68 10.752-10.24 18.432-11.264 36.864-21.504 55.296-32.256-7.68-28.672-11.264-30.208-34.816-16.384-11.264 6.656-22.528 13.312-34.304 19.968-6.656 3.584-13.312 11.776-22.016 2.048-1.536-1.536-8.704 2.048-12.288 4.096-18.432 10.24-36.352 20.48-49.152 28.16-15.36-5.12-26.112-8.192-36.864-11.776-3.072-1.024-8.192-2.048-9.216-4.608-6.144-16.384-19.968-14.336-32.768-14.336-30.72 0.512-60.928 0.512-91.648 0-11.264 0-18.432 2.048-17.92 15.36 0.512 12.288-8.704 13.312-17.408 12.288-18.944-2.56-28.672 6.144-34.816 23.04-4.096 11.264-11.264 21.504-15.36 32.256-5.632 15.36-15.36 22.528-32.256 23.04-9.216 0-15.36 0-20.48-9.728-2.048-4.608-10.24-9.216-14.848-8.704-39.424 3.584-78.336 8.192-117.76 12.8-4.608 0.512-11.776 4.608-12.288 7.168-1.024 16.896-11.264 21.504-25.6 24.064-5.632 1.024-10.24 7.68-14.848 11.776-1.024 76.288-1.024 150.528-1.024 224.768z" p-id="6417" fill="#0c6e12"></path><path d="M645.632 691.2c-1.024 50.176 36.352 89.6 86.528 91.136 48.64 1.536 89.6-36.864 90.624-84.992 1.024-53.76-33.792-90.624-86.016-91.648-52.224-1.024-89.6 34.304-91.136 85.504zM106.496 693.76c-0.512 48.64 38.4 88.064 87.552 88.576 50.176 0.512 89.6-37.888 89.6-88.064 0.512-50.176-37.888-89.088-88.064-89.088-50.176 0-88.576 38.4-89.088 88.576z" p-id="6418" fill="#0c6e12"></path></svg>